<svg width="30" height="30" viewBox="0 0 30 30" fill="none" xmlns="http://www.w3.org/2000/svg">
<path d="M9.51153 17.1952C9.51153 16.9041 9.39589 16.6249 9.19006 16.4191C8.98423 16.2133 8.70506 16.0976 8.41397 16.0976C8.12288 16.0976 7.84371 16.2133 7.63787 16.4191C7.43204 16.6249 7.31641 16.9041 7.31641 17.1952V21.5854C7.31641 21.8765 7.43204 22.1557 7.63787 22.3615C7.84371 22.5674 8.12288 22.683 8.41397 22.683C8.70506 22.683 8.98423 22.5674 9.19006 22.3615C9.39589 22.1557 9.51153 21.8765 9.51153 21.5854V17.1952ZM14.9993 10.9757C15.2904 10.9757 15.5696 11.0913 15.7754 11.2971C15.9813 11.503 16.0969 11.7821 16.0969 12.0732V21.5854C16.0969 21.8765 15.9813 22.1557 15.7754 22.3615C15.5696 22.5674 15.2904 22.683 14.9993 22.683C14.7082 22.683 14.4291 22.5674 14.2232 22.3615C14.0174 22.1557 13.9018 21.8765 13.9018 21.5854V12.0732C13.9018 11.7821 14.0174 11.503 14.2232 11.2971C14.4291 11.0913 14.7082 10.9757 14.9993 10.9757ZM22.6823 8.4147C22.6823 8.12361 22.5666 7.84444 22.3608 7.63861C22.155 7.43277 21.8758 7.31714 21.5847 7.31714C21.2936 7.31714 21.0144 7.43277 20.8086 7.63861C20.6028 7.84444 20.4871 8.12361 20.4871 8.4147V21.5854C20.4871 21.8765 20.6028 22.1557 20.8086 22.3615C21.0144 22.5674 21.2936 22.683 21.5847 22.683C21.8758 22.683 22.155 22.5674 22.3608 22.3615C22.5666 22.1557 22.6823 21.8765 22.6823 21.5854V8.4147Z" fill="white"/>
<path fill-rule="evenodd" clip-rule="evenodd" d="M9.79756 0C7.79707 0 6.18293 -2.18066e-08 4.91415 0.171219C3.59707 0.346829 2.4878 0.727317 1.60683 1.60683C0.725854 2.4878 0.348293 3.59707 0.171219 4.91415C-2.18066e-08 6.18293 0 7.79707 0 9.79756V20.2024C0 22.2029 -2.18066e-08 23.8171 0.171219 25.0859C0.346829 26.4029 0.727317 27.5122 1.60683 28.3932C2.4878 29.2741 3.59707 29.6517 4.91415 29.8302C6.18293 30 7.79707 30 9.79756 30H20.2024C22.2029 30 23.8171 30 25.0859 29.8302C26.4029 29.6517 27.5122 29.2741 28.3932 28.3932C29.2741 27.5122 29.6517 26.4029 29.8302 25.0859C30 23.8171 30 22.2029 30 20.2024V9.79756C30 7.79707 30 6.18293 29.8302 4.91415C29.6517 3.59707 29.2741 2.4878 28.3932 1.60683C27.5122 0.725854 26.4029 0.348293 25.0859 0.171219C23.8171 -2.18066e-08 22.2029 0 20.2024 0H9.79756ZM3.16098 3.15951C3.56634 2.75415 4.13415 2.49073 5.20976 2.34585C6.31317 2.19805 7.77951 2.19512 9.87951 2.19512H20.1234C22.2234 2.19512 23.6883 2.19805 24.7946 2.34585C25.8688 2.49073 26.4366 2.75561 26.842 3.15951C27.2473 3.56488 27.5107 4.13268 27.6556 5.20829C27.8034 6.31171 27.8063 7.77805 27.8063 9.87805V20.122C27.8063 22.222 27.8034 23.6868 27.6556 24.7932C27.5107 25.8673 27.2459 26.4351 26.842 26.8405C26.4366 27.2459 25.8688 27.5093 24.7932 27.6541C23.6883 27.802 22.2234 27.8049 20.1234 27.8049H9.87951C7.77951 27.8049 6.31317 27.802 5.20829 27.6541C4.13415 27.5093 3.56634 27.2444 3.16098 26.8405C2.75561 26.4351 2.4922 25.8673 2.34732 24.7917C2.19951 23.6868 2.19659 22.222 2.19659 20.122V9.87805C2.19659 7.77805 2.19951 6.31171 2.34732 5.20683C2.4922 4.13268 2.75707 3.56488 3.16098 3.15951Z" fill="white"/>
</svg>
