<svg width="30" height="30" viewBox="0 0 30 30" fill="none" xmlns="http://www.w3.org/2000/svg">
<path d="M29.2409 18.2236C28.3623 17.3798 27.8864 16.2058 27.8864 14.9951C27.8864 13.7845 28.3623 12.6472 29.2409 11.7667C29.3873 11.62 29.5338 11.5099 29.7168 11.3632C29.9731 11.1797 30.0463 10.8495 29.9731 10.5561C29.6802 9.49214 29.2409 8.46491 28.7284 7.51105C28.5819 7.25425 28.2891 7.1075 27.9962 7.14419C27.7399 7.18087 27.5569 7.18087 27.3738 7.18087C24.8478 7.18087 22.7977 5.12642 22.7977 2.63172C22.7977 2.44829 22.7977 2.22817 22.8343 2.00805C22.8709 1.71456 22.7245 1.42106 22.4682 1.27432C21.5164 0.760701 20.4914 0.320461 19.4297 0.0269671C19.1368 -0.0464063 18.8073 0.0636537 18.6243 0.283774C18.4779 0.467207 18.3314 0.650641 18.2216 0.760701C17.343 1.6045 16.2081 2.08142 15 2.08142C13.7919 2.08142 12.6204 1.6045 11.7784 0.760701C11.632 0.613954 11.5221 0.467207 11.3757 0.283774C11.1927 0.026967 10.8632 -0.0464063 10.5703 0.0269671C9.50865 0.357147 8.48359 0.760701 7.53176 1.27432C7.2755 1.42106 7.12906 1.71456 7.16567 2.00805C7.20228 2.26486 7.20228 2.44829 7.20228 2.63172C7.20228 5.1631 5.15217 7.18087 2.62615 7.18087C2.44311 7.18087 2.22345 7.18087 2.0038 7.14419C1.71092 7.1075 1.41805 7.25425 1.27162 7.51105C0.75909 8.46491 0.319782 9.49214 0.02691 10.5561C-0.046308 10.8495 0.0269099 11.1797 0.283173 11.3632C0.502827 11.5099 0.649263 11.6567 0.75909 11.7667C2.55293 13.5277 2.55293 16.4259 0.75909 18.2236C0.612654 18.3703 0.466218 18.4804 0.283173 18.6271C0.0269099 18.8106 -0.046308 19.1407 0.02691 19.4342C0.356391 20.4981 0.75909 21.5254 1.27162 22.4792C1.41805 22.736 1.71092 22.8828 2.0038 22.8461C2.26006 22.8094 2.44311 22.8094 2.62615 22.8094C5.15217 22.8094 7.20228 24.8639 7.20228 27.3586C7.20228 27.542 7.20228 27.7621 7.16567 27.9822C7.12906 28.2757 7.2755 28.5692 7.53176 28.716C8.48359 29.2296 9.50865 29.6698 10.5703 29.9633C10.8632 30.0367 11.1927 29.9633 11.3757 29.7065C11.5221 29.5231 11.6686 29.3396 11.7784 29.2296C12.657 28.3858 13.7919 27.9089 15 27.9089C16.2081 27.9089 17.3796 28.3858 18.2216 29.2296C18.368 29.3763 18.4779 29.5231 18.6243 29.7065C18.7707 29.8899 18.9904 30 19.21 30C19.2833 30 19.3565 30 19.4297 29.9633C20.4914 29.6331 21.5164 29.2296 22.4682 28.716C22.7245 28.5692 22.8709 28.2757 22.8343 27.9822C22.7977 27.7254 22.7977 27.542 22.7977 27.3586C22.7977 24.8272 24.8478 22.8094 27.3738 22.8094C27.5569 22.8094 27.7765 22.8094 27.9962 22.8461C28.2891 22.8828 28.5819 22.736 28.7284 22.4792C29.2409 21.5254 29.6802 20.4981 29.9731 19.4342C30.0463 19.1407 29.9731 18.8106 29.7168 18.6271C29.5338 18.4804 29.3507 18.3703 29.2409 18.2236ZM27.6667 21.3419H27.3372C24.0058 21.3419 21.2968 24.0568 21.2968 27.3586V27.6887C20.711 27.9822 20.0887 28.239 19.4297 28.4592L19.21 28.239C18.0752 27.1017 16.5742 26.4781 14.9634 26.4781C13.3526 26.4781 11.8516 27.1017 10.7167 28.239L10.4971 28.4592C9.87474 28.239 9.25238 27.9822 8.63003 27.6887V27.3586C8.63003 24.0201 5.92096 21.3419 2.58954 21.3419H2.26006C1.96719 20.755 1.71092 20.1313 1.49127 19.4709L1.71092 19.2508C4.0539 16.9028 4.0539 13.0874 1.71092 10.7028L1.49127 10.4827C1.71092 9.859 1.96719 9.23533 2.26006 8.61165H2.58954C5.92096 8.61165 8.63003 5.89684 8.63003 2.59504V2.26486C9.21577 1.97136 9.83813 1.71456 10.4971 1.49443L10.7167 1.71456C11.8516 2.85184 13.3526 3.47552 14.9634 3.47552C16.5742 3.47552 18.0752 2.85184 19.21 1.71456L19.4297 1.49443C20.052 1.71456 20.6744 1.97136 21.2968 2.26486V2.59504C21.2968 5.93353 24.0058 8.61165 27.3372 8.61165H27.6667C27.9596 9.19864 28.2159 9.82232 28.4355 10.4827L28.2159 10.7028C27.081 11.8401 26.4586 13.3442 26.4586 14.9585C26.4586 16.5727 27.081 18.0768 28.2159 19.2141L28.4355 19.4342C28.2159 20.1313 27.9596 20.755 27.6667 21.3419ZM15 6.26371C10.2042 6.26371 6.28705 10.1892 6.28705 14.9951C6.28705 19.8011 10.2042 23.7266 15 23.7266C19.7958 23.7266 23.7129 19.8011 23.7129 14.9951C23.7129 10.1892 19.7958 6.26371 15 6.26371ZM15 22.2591C11.0096 22.2591 7.75141 18.994 7.75141 14.9951C7.75141 10.9963 11.0096 7.73117 15 7.73117C18.9904 7.73117 22.2486 10.9963 22.2486 14.9951C22.2486 18.994 18.9904 22.2591 15 22.2591Z" fill="white"/>
</svg>
